<svg width="41" height="41" viewBox="0 0 41 41" fill="none" xmlns="http://www.w3.org/2000/svg">
<path d="M12.3564 1.50961H12.8564V1.5H28.7612C34.7258 1.5 39.6083 6.48469 39.6083 12.612V29.386C39.6083 35.5136 34.7255 40.498 28.7706 40.498H12.3564C6.39053 40.498 1.5 35.5216 1.5 29.4052V12.6216C1.5 6.49485 6.39133 1.50961 12.3564 1.50961ZM3.50833 12.6303V12.6312V29.4149C3.50833 34.401 7.43588 38.4316 12.3564 38.4316H28.7706C33.6738 38.4316 37.5999 34.3995 37.5999 29.3956V12.6216C37.5999 7.6174 33.6735 3.58565 28.7612 3.58565H12.3564C7.44367 3.58565 3.51825 7.61773 3.50833 12.6303ZM31.5927 8.6997C31.5927 8.10977 32.0467 7.66168 32.5968 7.66168C33.147 7.66168 33.601 8.10977 33.601 8.6997C33.601 9.28963 33.147 9.73772 32.5968 9.73772C32.0467 9.73772 31.5927 9.28963 31.5927 8.6997ZM10.5344 21.0038C10.5344 15.3481 15.0591 10.7377 20.5635 10.7377C26.068 10.7377 30.5927 15.3481 30.5927 21.0038C30.5927 26.6596 26.068 31.2699 20.5635 31.2699C15.0591 31.2699 10.5344 26.6596 10.5344 21.0038ZM28.5843 21.0038C28.5843 16.4702 25.0242 12.8137 20.5635 12.8137C16.1029 12.8137 12.5427 16.4702 12.5427 21.0038C12.5427 25.5374 16.1029 29.1939 20.5635 29.1939C25.0242 29.1939 28.5843 25.5374 28.5843 21.0038Z" fill="#070707" stroke="#070707"/>
</svg>
